HIERARCHY
ROOT Hips
{
	OFFSET 0.000000 0.000000 0.000000
	CHANNELS 6 Xposition Yposition Zposition Zrotation Yrotation Xrotation 
	JOINT LHipJoint
	{
		OFFSET 0.000000 0.000000 0.000000
		CHANNELS 3 Zrotation Yrotation Xrotation
		JOINT LeftUpLeg
		{
			OFFSET 1.363060 -1.794630 0.839290
			CHANNELS 3 Zrotation Yrotation Xrotation
			JOINT LeftLeg
			{
				OFFSET 2.448110 -6.726130 0.000000
				CHANNELS 3 Zrotation Yrotation Xrotation
				JOINT LeftFoot
				{
					OFFSET 2.562200 -7.039590 0.000000
					CHANNELS 3 Zrotation Yrotation Xrotation
					JOINT LeftToeBase
					{
						OFFSET 0.157640 -0.433110 2.322550
						CHANNELS 3 Zrotation Yrotation Xrotation
						End Site
						{
							OFFSET 0.000000 0.000000 0.000000
						}
					}
				}
			}
		}
	}
	JOINT RHipJoint
	{
		OFFSET 0.000000 0.000000 0.000000
		CHANNELS 3 Zrotation Yrotation Xrotation
		JOINT RightUpLeg
		{
			OFFSET -1.305520 -1.794630 0.839290
			CHANNELS 3 Zrotation Yrotation Xrotation
			JOINT RightLeg
			{
				OFFSET -2.542530 -6.985550 0.000000
				CHANNELS 3 Zrotation Yrotation Xrotation
				JOINT RightFoot
				{
					OFFSET -2.568260 -7.056230 0.000000
					CHANNELS 3 Zrotation Yrotation Xrotation
					JOINT RightToeBase
					{
						OFFSET -0.164730 -0.452590 2.363150
						CHANNELS 3 Zrotation Yrotation Xrotation
						End Site
						{
							OFFSET 0.000000 0.000000 0.000000
						}
					}
				}
			}
		}
	}
	JOINT LowerBack
	{
		OFFSET 0.000000 0.000000 0.000000
		CHANNELS 3 Zrotation Yrotation Xrotation
		JOINT Spine
		{
			OFFSET 0.028270 2.035590 -0.193380
			CHANNELS 3 Zrotation Yrotation Xrotation
			JOINT Spine1
			{
				OFFSET 0.056720 2.048850 -0.042750
				CHANNELS 3 Zrotation Yrotation Xrotation
				JOINT Neck
				{
					OFFSET 0.000000 0.000000 0.000000
					CHANNELS 3 Zrotation Yrotation Xrotation
					JOINT Neck1
					{
						OFFSET -0.054170 1.746240 0.172020
						CHANNELS 3 Zrotation Yrotation Xrotation
						JOINT Head
						{
							OFFSET 0.104070 1.761360 -0.123970
							CHANNELS 3 Zrotation Yrotation Xrotation
							End Site
							{
								OFFSET 0.000000 0.000000 0.000000
							}
						}
					}
				}
				JOINT LeftShoulder
				{
					OFFSET 0.000000 0.000000 0.000000
					CHANNELS 3 Zrotation Yrotation Xrotation
					JOINT LeftArm
					{
						OFFSET 3.362410 1.200890 -0.311210
						CHANNELS 3 Zrotation Yrotation Xrotation
						JOINT LeftForeArm
						{
							OFFSET 4.983000 -0.000000 -0.000000
							CHANNELS 3 Zrotation Yrotation Xrotation
							JOINT LeftHand
							{
								OFFSET 3.483560 -0.000000 -0.000000
								CHANNELS 3 Zrotation Yrotation Xrotation
								JOINT LeftFingerBase
								{
									OFFSET 0.000000 0.000000 0.000000
									CHANNELS 3 Zrotation Yrotation Xrotation
									JOINT LeftHandIndex1
									{
										OFFSET 0.715260 -0.000000 -0.000000
										CHANNELS 3 Zrotation Yrotation Xrotation
										End Site
										{
											OFFSET 0.000000 0.000000 0.000000
										}
									}
								}
								JOINT LThumb
								{
									OFFSET 0.000000 0.000000 0.000000
									CHANNELS 3 Zrotation Yrotation Xrotation
									End Site
									{
										OFFSET 0.000000 0.000000 0.000000
									}
								}
							}
						}
					}
				}
				JOINT RightShoulder
				{
					OFFSET 0.000000 0.000000 0.000000
					CHANNELS 3 Zrotation Yrotation Xrotation
					JOINT RightArm
					{
						OFFSET -3.136600 1.374050 -0.404650
						CHANNELS 3 Zrotation Yrotation Xrotation
						JOINT RightForeArm
						{
							OFFSET -5.241900 -0.000000 -0.000000
							CHANNELS 3 Zrotation Yrotation Xrotation
							JOINT RightHand
							{
								OFFSET -3.444170 -0.000000 -0.000000
								CHANNELS 3 Zrotation Yrotation Xrotation
								JOINT RightFingerBase
								{
									OFFSET 0.000000 0.000000 0.000000
									CHANNELS 3 Zrotation Yrotation Xrotation
									JOINT RightHandIndex1
									{
										OFFSET -0.622530 -0.000000 -0.000000
										CHANNELS 3 Zrotation Yrotation Xrotation
										End Site
										{
											OFFSET 0.000000 0.000000 0.000000
										}
									}
								}
								JOINT RThumb
								{
									OFFSET 0.000000 0.000000 0.000000
									CHANNELS 3 Zrotation Yrotation Xrotation
									End Site
									{
										OFFSET 0.000000 0.000000 0.000000
									}
								}
							}
						}
					}
				}
			}
		}
	}
}
MOTION
Frames: 7
Frame Time: 0.008333
31.456307 17.714807 5.589012 63.083011 -86.887112 -64.617716 -2.219548 -1.022156 0.111597 -24.307777 -2.363237 -4.756040 0.067094 7.326044 19.062874 0.351454 0.616847 0.930831 0.240900 3.158900 8.721400 0.425888 2.616607 -3.330427 4.418626 5.183576 -61.746679 -9.991198 -18.210280 60.668961 -39.650719 12.311966 -158.892356 -1.167700 -6.859500 19.299900 -3.516025 -5.251212 9.675639 1.156008 -6.865259 -4.871402 6.310861 -3.601822 -3.503991 -4.531958 -1.361140 -17.210337 5.268386 -1.355842 9.837265 2.436900 -0.604400 8.794200 4.873723 3.392291 0.147668 -88.421385 -9.609248 35.114733 69.581238 -62.113329 -35.567629 -0.582139 1.679802 -7.719301 11.034403 8.673906 1.384600 -7.125000 0.000000 0.000000 -12.950700 36.725500 2.691300 -2.828516 -4.047680 -2.501905 75.105540 -20.370231 24.223109 -23.344056 39.552383 -9.949443 -0.245605 0.680704 3.341023 -5.417623 -6.731904 0.663300 7.125000 0.000000 0.000000 18.203000 -36.838400 3.810500 
31.345421 17.733120 5.578950 55.644688 -86.727723 -57.399179 -2.299728 -0.908638 0.210532 -24.144535 -2.386215 -3.922527 0.011626 7.194122 18.638020 0.403108 0.373459 0.892447 0.241500 3.162600 8.731800 0.259563 2.672206 -3.433022 4.040986 5.484913 -64.420442 -9.828733 -18.096911 60.102392 -39.613716 12.039195 -158.832869 -1.173000 -6.874400 19.343800 -3.584022 -5.475078 9.890373 1.249928 -7.174127 -4.834047 6.474012 -3.740247 -3.463062 -4.411644 -1.244350 -17.249133 5.146739 -1.221846 9.850572 2.364000 -0.546200 8.800200 4.866415 3.439453 0.117334 -87.675859 -10.720727 35.485711 70.529291 -62.140367 -36.277903 -0.566714 1.664996 -7.468987 11.167112 8.563381 1.381700 -7.125000 0.000000 0.000000 -12.828300 36.641100 2.691900 -2.808429 -4.072590 -2.514569 74.743078 -21.243651 23.815669 -23.472358 39.732021 -10.067580 -0.244962 0.687462 3.208864 -5.410404 -6.675402 0.658200 7.125000 0.000000 0.000000 18.195200 -36.791100 3.830800 
31.229100 17.748918 5.562347 47.417922 -86.598551 -49.416168 -2.424713 -0.808995 0.323985 -23.744993 -2.453163 -3.031772 -0.044627 7.051127 18.190035 0.441130 0.198198 0.820250 0.247200 3.199400 8.834300 0.059794 2.695144 -3.509152 3.860300 5.848759 -66.950910 -9.736588 -18.029777 59.812658 -39.590297 12.124258 -158.572397 -1.282400 -7.176300 20.238900 -3.624783 -5.665992 10.358157 1.398242 -7.450814 -4.875455 6.834117 -3.848271 -3.763930 -4.365128 -1.176425 -17.302637 4.986223 -1.132652 9.980335 2.280200 -0.520700 8.881700 4.875451 3.452596 0.086856 -87.066963 -11.602797 35.879329 71.356089 -62.152443 -36.866895 -0.565817 1.646817 -7.258188 11.102845 8.535452 1.373100 -7.125000 0.000000 0.000000 -12.873900 36.630000 2.705500 -2.771012 -4.085211 -2.550867 74.188296 -22.447069 23.549583 -23.737684 40.037758 -10.275941 -0.247325 0.695560 3.095798 -5.357439 -6.733404 0.657000 7.125000 0.000000 0.000000 18.255800 -36.851000 3.816700 
31.114289 17.764012 5.553493 45.045526 -86.348604 -47.173174 -2.457085 -0.753849 0.377757 -23.896639 -2.508496 -2.180634 -0.092380 6.891712 17.723240 0.427589 0.261379 0.596771 0.233500 3.110000 8.585100 -0.041098 2.689986 -3.554203 3.334152 6.218646 -69.319579 -9.761619 -18.045480 59.922528 -39.613674 12.412922 -158.448053 -1.326300 -7.293300 20.587300 -3.817286 -5.806840 10.389661 1.450878 -7.649491 -4.852596 6.984870 -3.944424 -3.685816 -4.363632 -1.111286 -17.194511 4.997879 -1.047442 9.973715 2.281300 -0.480300 8.846200 4.859079 3.495977 0.066879 -86.322088 -12.569179 36.286707 71.694883 -62.126709 -37.128396 -0.567926 1.629126 -7.354912 11.053423 8.590077 1.381600 -7.125000 0.000000 0.000000 -12.927400 36.698500 2.695000 -2.763283 -4.112702 -2.561327 73.913572 -23.223310 23.021583 -23.643455 40.011771 -10.255789 -0.243150 0.699491 3.240107 -5.209035 -6.573295 0.624600 7.125000 0.000000 0.000000 18.336200 -36.692100 3.909700 
30.998673 17.779005 5.542525 40.756163 -86.101140 -43.069885 -2.526740 -0.698917 0.441277 -23.830263 -2.581286 -1.290479 -0.137370 6.743697 17.287203 0.430515 0.248746 0.405978 0.227400 3.069700 8.472800 -0.181264 2.674730 -3.602080 2.938117 6.518603 -71.640255 -9.770823 -18.048128 59.985559 -39.645791 12.727326 -158.361607 -1.358500 -7.377600 20.839000 -3.913650 -5.972704 10.554927 1.528023 -7.878048 -4.833331 7.147784 -4.054894 -3.682237 -4.313029 -1.053446 -17.170099 4.950161 -0.980671 10.002000 2.246000 -0.451300 8.850500 4.846376 3.527846 0.044673 -85.576431 -13.547456 36.644695 72.161654 -62.102843 -37.484962 -0.566820 1.610735 -7.388175 11.018506 8.601602 1.383300 -7.125000 0.000000 0.000000 -12.961900 36.726500 2.693400 -2.748471 -4.140713 -2.577762 73.597361 -24.089298 22.575975 -23.654998 40.085502 -10.302895 -0.241394 0.704647 3.245972 -5.116146 -6.503459 0.607500 7.125000 0.000000 0.000000 18.394500 -36.624600 3.955100 
30.882252 17.792891 5.531859 36.961428 -85.855020 -39.463972 -2.589342 -0.654181 0.493378 -23.773416 -2.682577 -0.381111 -0.176892 6.602789 16.876656 0.421056 0.295944 0.162214 0.221000 3.026400 8.352200 -0.310866 2.648242 -3.641848 2.591567 6.780620 -73.794789 -9.834711 -18.083585 60.240709 -39.701551 13.171877 -158.324344 -1.367200 -7.400300 20.906900 -3.977039 -6.130258 10.677879 1.594230 -8.088861 -4.798197 7.260090 -4.163673 -3.619129 -4.254643 -1.009162 -17.155813 4.925027 -0.935448 10.018106 2.218100 -0.428800 8.849700 4.829694 3.561463 0.025635 -84.809395 -14.534112 36.976043 72.476684 -62.067131 -37.736058 -0.566742 1.591385 -7.487808 10.960467 8.625750 1.384600 -7.125000 0.000000 0.000000 -13.018900 36.766100 2.692900 -2.737949 -4.171647 -2.590459 73.349936 -24.880610 22.101450 -23.615205 40.112257 -10.316839 -0.239039 0.708919 3.252191 -5.013322 -6.419301 0.588200 7.125000 0.000000 0.000000 18.456700 -36.542100 4.008800 
30.765429 17.805468 5.521595 33.423065 -85.613592 -36.124571 -2.647082 -0.617954 0.535920 -23.711434 -2.810077 0.546483 -0.211021 6.471650 16.497786 0.402803 0.385713 -0.124582 0.215100 2.985600 8.238700 -0.432534 2.612655 -3.675920 2.319168 6.995983 -75.757655 -9.952490 -18.148404 60.673203 -39.772563 13.660852 -158.350326 -1.345700 -7.344400 20.739700 -4.002053 -6.281292 10.776954 1.651040 -8.284822 -4.747182 7.324006 -4.271717 -3.506174 -4.187149 -0.977512 -17.154218 4.923397 -0.910855 10.019638 2.197700 -0.412200 8.844000 4.809512 3.595727 0.009707 -84.030648 -15.512759 37.271882 72.669682 -62.023470 -37.902638 -0.565743 1.571576 -7.618944 10.894431 8.643410 1.383500 -7.125000 0.000000 0.000000 -13.082700 36.799200 2.695800 -2.731021 -4.204100 -2.599213 73.173407 -25.588230 21.605606 -23.525665 40.091642 -10.297125 -0.236740 0.712431 3.226564 -4.918225 -6.346336 0.571100 7.125000 0.000000 0.000000 18.514700 -36.470200 4.056700 
